<mxfile host="app.diagrams.net" modified="2023-06-05T18:16:34.044Z" agent="Mozilla/5.0 (Windows NT 10.0; Win64; x64) AppleWebKit/537.36 (KHTML, like Gecko) Chrome/113.0.0.0 Safari/537.36" version="21.3.7" etag="oEE7y75XKEm0vHZXLbBJ" type="github">
  <diagram name="PÃ¡gina-1" id="jKV4O8epHR3yCGuTGwsw">
    <mxGraphModel>
      <root>
        <mxCell id="0" />
        <mxCell id="1" parent="0" />
      </root>
    </mxGraphModel>
  </diagram>
</mxfile>
